<?xml version="1.0" encoding="utf-8"?>
<!-- Generator: Adobe Illustrator 24.1.2, SVG Export Plug-In . SVG Version: 6.00 Build 0)  -->
<svg version="1.1" id="Layer_1" xmlns="http://www.w3.org/2000/svg" xmlns:xlink="http://www.w3.org/1999/xlink" x="0px" y="0px"
	 viewBox="0 0 1080 1080" style="enable-background:new 0 0 1080 1080;" xml:space="preserve">
<style type="text/css">
	.st0{fill:#1DA1F2;}
</style>
<path class="st0" d="M1079.7,205.2c-40.4,17.9-83.3,29.6-127.2,34.8c46.2-27.7,80.9-71.2,97.4-122.5c-43.5,25.8-91,44-140.6,53.7
	c-41.9-44.7-100.4-70-161.7-69.9c-122.3,0-221.5,99.2-221.5,221.5c0,17,1.9,33.9,5.8,50.5c-184-9.2-347.2-97.4-456.5-231.4
	c-58.8,101.2-28.8,230.7,68.5,295.7c-35.2-1.1-69.6-10.6-100.3-27.7c0,0.9,0,1.9,0,2.8c0,107.3,76.4,196.8,177.7,217.1
	c-32.6,8.8-66.8,10.2-100,3.8c29,90.2,112.1,152,206.9,153.8c-78.5,61.6-175.3,95-275.1,94.8c-17.6,0-35.3-1-52.8-3.1
	c101.2,65.1,219.1,99.6,339.4,99.5c407.3,0,630.1-337.4,630.1-630.1c0-9.6-0.2-19.1-0.6-28.6C1012.6,288.5,1050,249.7,1079.7,205.2
	L1079.7,205.2z"/>
</svg>
